<?xml version="1.0" encoding="utf-8"?>
<!-- Generator: Adobe Illustrator 22.1.0, SVG Export Plug-In . SVG Version: 6.00 Build 0)  -->
<svg version="1.1" id="Camada_1" xmlns="http://www.w3.org/2000/svg" xmlns:xlink="http://www.w3.org/1999/xlink" x="0px" y="0px"
	 viewBox="0 0 4096 4096" style="enable-background:new 0 0 4096 4096;" xml:space="preserve">
<style type="text/css">
	.st0{fill:#607D8B;}
</style>
<g>
	<path class="st0" d="M1603.8,3111.5c0,0,384.4-509.4,849-34s464.5,475.4,464.5,475.4s-225.5-522.5-472.7-678.3
		C2444.6,2874.7,1827.9,2439.2,1603.8,3111.5z"/>
	<path class="st0" d="M3026,1743.7c0,0,108.7,336.9-239.1,249.9c0,0-152.1-59.8-114.1-249.9l-217.3,48.9
		c0,0,173.9-135.8,744.4-108.7l412.9,32.6L3026,1743.7z"/>
	<path class="st0" d="M1214,1702.9c0,0-150.8,262.3,171.2,305c0,0,199.7-26.6,172.5-237.1l182,17.7c0,0-274.4-120.9-612.6-165.7
		C788.8,1578,788.8,1578,788.8,1578H540.3L1214,1702.9z"/>
	<path class="st0" d="M1711.1,1241.1c0,0,229.6,351.8-19,343.7c0,0-1018.8-558.3-1491.5-514.8c0,0,662.9-135.8,1480.6,453.7
		c0,0,99.1,64.9,74-93L1711.1,1241.1z"/>
	<path class="st0" d="M1849.7,1469.3c0,0,48.9-415.7-43.5-524.3C1806.2,945,1836.1,1461.2,1849.7,1469.3z"/>
	<path class="st0" d="M2281.6,1469.3c0,0,32.6-461.8,54.3-524.3C2336,945,2192,1189.5,2281.6,1469.3z"/>
	<path class="st0" d="M2417.5,1243.8c0,0-108.7,263.5-19,285.3c0,0,828.6-554.1,1496.9-472.6c0,0-809.6,122.2-1439.8,518.8
		C2455.5,1575.3,2171.6,1662.2,2417.5,1243.8z"/>
</g>
</svg>
